<svg width="18" height="18" viewBox="0 0 18 18" fill="none" xmlns="http://www.w3.org/2000/svg">
<path d="M15.375 5.45972L8.99998 9.00138M8.99998 9.00138L2.62498 5.45972M8.99998 9.00138L9 16.1264M10.5 15.6681L9.58277 16.1776C9.37007 16.2958 9.26372 16.3549 9.15109 16.3781C9.05141 16.3986 8.9486 16.3986 8.84891 16.3781C8.73628 16.3549 8.62993 16.2958 8.41723 16.1776L2.86723 13.0943C2.64259 12.9695 2.53026 12.9071 2.44847 12.8184C2.37612 12.7398 2.32136 12.6468 2.28786 12.5454C2.25 12.4308 2.25 12.3023 2.25 12.0453V5.95749C2.25 5.70051 2.25 5.57202 2.28786 5.45742C2.32136 5.35604 2.37612 5.26298 2.44847 5.18446C2.53026 5.09571 2.64259 5.0333 2.86723 4.9085L8.41723 1.82517C8.62993 1.707 8.73629 1.64791 8.84891 1.62475C8.9486 1.60425 9.05141 1.60425 9.15109 1.62475C9.26372 1.64792 9.37007 1.707 9.58277 1.82517L15.1328 4.9085C15.3574 5.0333 15.4697 5.0957 15.5515 5.18446C15.6239 5.26297 15.6786 5.35604 15.7121 5.45742C15.75 5.57202 15.75 5.70051 15.75 5.95749L15.75 9.37641M5.625 3.37641L12.375 7.12641M12 13.5014L13.5 15.0014L16.5 12.0014" stroke="#28B446" stroke-width="1.5" stroke-linecap="round" stroke-linejoin="round"/>
</svg>
