<svg width="19" height="19" viewBox="0 0 19 19" fill="none" xmlns="http://www.w3.org/2000/svg">
<g clip-path="url(#clip0_13106_37231)">
<mask id="mask0_13106_37231" style="mask-type:luminance" maskUnits="userSpaceOnUse" x="0" y="0" width="19" height="19">
<path d="M18.3652 0.614227H0.365234V18.6142H18.3652V0.614227Z" fill="white"/>
</mask>
<g mask="url(#mask0_13106_37231)">
<path d="M7.11523 9.61422L8.61523 11.1142L11.9902 7.73922M5.86556 3.47825C6.46843 3.43014 7.04077 3.19306 7.50108 2.80078C8.57527 1.88537 10.1552 1.88537 11.2293 2.80078C11.6897 3.19306 12.262 3.43014 12.8649 3.47825C14.2717 3.59052 15.3889 4.70768 15.5012 6.11455C15.5493 6.71742 15.7864 7.28976 16.1786 7.75007C17.0941 8.82426 17.0941 10.4042 16.1786 11.4783C15.7864 11.9387 15.5493 12.511 15.5012 13.1139C15.3889 14.5207 14.2717 15.6379 12.8649 15.7502C12.262 15.7983 11.6897 16.0354 11.2293 16.4276C10.1552 17.3431 8.57527 17.3431 7.50108 16.4276C7.04077 16.0354 6.46843 15.7983 5.86556 15.7502C4.45869 15.6379 3.34152 14.5207 3.22925 13.1139C3.18114 12.511 2.94407 11.9387 2.55179 11.4783C1.63638 10.4042 1.63638 8.82426 2.55179 7.75007C2.94407 7.28976 3.18114 6.71742 3.22925 6.11455C3.34152 4.70768 4.45869 3.59052 5.86556 3.47825Z" stroke="#4BC0C0" stroke-width="1.5" stroke-linecap="round" stroke-linejoin="round"/>
</g>
</g>
<defs>
<clipPath id="clip0_13106_37231">
<rect width="18" height="18" fill="white" transform="translate(0.365234 0.614227)"/>
</clipPath>
</defs>
</svg>
