<svg width="19" height="18" viewBox="0 0 19 18" fill="none" xmlns="http://www.w3.org/2000/svg">
<g clip-path="url(#clip0_15486_136828)">
<path d="M4.24937 5.39937C4.24937 4.96176 4.42321 4.54208 4.73264 4.23264C5.04208 3.92321 5.46176 3.74937 5.89937 3.74937H6.64937C7.08504 3.74912 7.50294 3.57657 7.81187 3.26937L8.33687 2.74437C8.4902 2.59017 8.67251 2.4678 8.8733 2.3843C9.07409 2.3008 9.28941 2.25781 9.50687 2.25781C9.72433 2.25781 9.93965 2.3008 10.1404 2.3843C10.3412 2.4678 10.5235 2.59017 10.6769 2.74437L11.2019 3.26937C11.5109 3.57687 11.9294 3.74937 12.3644 3.74937H13.1144C13.552 3.74937 13.9717 3.92321 14.2811 4.23264C14.5905 4.54208 14.7644 4.96176 14.7644 5.39937V6.14937C14.7644 6.58437 14.9369 7.00287 15.2444 7.31187L15.7694 7.83687C15.9236 7.9902 16.0459 8.17251 16.1294 8.3733C16.2129 8.57409 16.2559 8.78941 16.2559 9.00687C16.2559 9.22433 16.2129 9.43965 16.1294 9.64044C16.0459 9.84123 15.9236 10.0235 15.7694 10.1769L15.2444 10.7019C14.9372 11.0108 14.7646 11.4287 14.7644 11.8644V12.6144C14.7644 13.052 14.5905 13.4717 14.2811 13.7811C13.9717 14.0905 13.552 14.2644 13.1144 14.2644H12.3644C11.9287 14.2646 11.5108 14.4372 11.2019 14.7444L10.6769 15.2694C10.5235 15.4236 10.3412 15.5459 10.1404 15.6294C9.93965 15.7129 9.72433 15.7559 9.50687 15.7559C9.28941 15.7559 9.07409 15.7129 8.8733 15.6294C8.67251 15.5459 8.4902 15.4236 8.33687 15.2694L7.81187 14.7444C7.50294 14.4372 7.08504 14.2646 6.64937 14.2644H5.89937C5.46176 14.2644 5.04208 14.0905 4.73264 13.7811C4.42321 13.4717 4.24937 13.052 4.24937 12.6144V11.8644C4.24912 11.4287 4.07657 11.0108 3.76937 10.7019L3.24437 10.1769C3.09017 10.0235 2.9678 9.84123 2.8843 9.64044C2.8008 9.43965 2.75781 9.22433 2.75781 9.00687C2.75781 8.78941 2.8008 8.57409 2.8843 8.3733C2.9678 8.17251 3.09017 7.9902 3.24437 7.83687L3.76937 7.31187C4.07657 7.00294 4.24912 6.58504 4.24937 6.14937V5.39937" stroke="#4BC0C0" stroke-width="2" stroke-linecap="round" stroke-linejoin="round"/>
<path d="M7.25 9L8.75 10.5L11.75 7.5" stroke="#4BC0C0" stroke-width="2" stroke-linecap="round" stroke-linejoin="round"/>
</g>
<defs>
<clipPath id="clip0_15486_136828">
<rect width="18" height="18" fill="white" transform="translate(0.5)"/>
</clipPath>
</defs>
</svg>
