<svg width="20" height="18" viewBox="0 0 20 18" fill="none" xmlns="http://www.w3.org/2000/svg">
<rect x="5" y="0.25" width="15" height="17.5" rx="1.25" fill="#2FB776"/>
<path d="M5 13.375H20V16.5C20 17.1904 19.4404 17.75 18.75 17.75H6.25C5.55964 17.75 5 17.1904 5 16.5V13.375Z" fill="url(#paint0_linear_18054_26298)"/>
<rect x="12.5" y="9" width="7.5" height="4.375" fill="#229C5B"/>
<rect x="12.5" y="4.625" width="7.5" height="4.375" fill="#27AE68"/>
<path d="M5 1.5C5 0.809644 5.55964 0.25 6.25 0.25H12.5V4.625H5V1.5Z" fill="#1D854F"/>
<rect x="5" y="4.625" width="7.5" height="4.375" fill="#197B43"/>
<rect x="5" y="9" width="7.5" height="4.375" fill="#1B5B38"/>
<path d="M5 6.5C5 5.46447 5.83947 4.625 6.875 4.625H10.625C11.6605 4.625 12.5 5.46447 12.5 6.5V14C12.5 15.0355 11.6605 15.875 10.625 15.875H5V6.5Z" fill="black" fill-opacity="0.3"/>
<rect y="3.375" width="11.25" height="11.25" rx="1.25" fill="url(#paint1_linear_18054_26298)"/>
<path d="M8.125 12.125L6.36383 8.9375L8.04768 5.875H6.67311L5.63359 7.83036L4.61125 5.875H3.19373L4.88617 8.9375L3.125 12.125H4.49957L5.60782 10.0536L6.70747 12.125H8.125Z" fill="white"/>
<defs>
<linearGradient id="paint0_linear_18054_26298" x1="5" y1="15.5625" x2="20" y2="15.5625" gradientUnits="userSpaceOnUse">
<stop stop-color="#163C27"/>
<stop offset="1" stop-color="#2A6043"/>
</linearGradient>
<linearGradient id="paint1_linear_18054_26298" x1="0" y1="9" x2="11.25" y2="9" gradientUnits="userSpaceOnUse">
<stop stop-color="#185A30"/>
<stop offset="1" stop-color="#176F3D"/>
</linearGradient>
</defs>
</svg>
