<svg width="19" height="18" viewBox="0 0 19 18" fill="none" xmlns="http://www.w3.org/2000/svg">
<g clip-path="url(#clip0_15486_136833)">
<path d="M7.75 12.75L10.75 9.75" stroke="#EF4444" stroke-width="2" stroke-linecap="round" stroke-linejoin="round"/>
<path d="M10.75 2.25V5.25C10.75 5.44891 10.829 5.63968 10.9697 5.78033C11.1103 5.92098 11.3011 6 11.5 6H14.5" stroke="#EF4444" stroke-width="2" stroke-linecap="round" stroke-linejoin="round"/>
<path d="M13 15.75H5.5C5.10218 15.75 4.72064 15.592 4.43934 15.3107C4.15804 15.0294 4 14.6478 4 14.25V3.75C4 3.35218 4.15804 2.97064 4.43934 2.68934C4.72064 2.40804 5.10218 2.25 5.5 2.25H10.75L14.5 6V14.25C14.5 14.6478 14.342 15.0294 14.0607 15.3107C13.7794 15.592 13.3978 15.75 13 15.75Z" stroke="#EF4444" stroke-width="2" stroke-linecap="round" stroke-linejoin="round"/>
<path d="M7.75 9.75H7.7575" stroke="#EF4444" stroke-width="2" stroke-linecap="round" stroke-linejoin="round"/>
<path d="M10.75 12.75H10.7575" stroke="#EF4444" stroke-width="2" stroke-linecap="round" stroke-linejoin="round"/>
</g>
<defs>
<clipPath id="clip0_15486_136833">
<rect width="18" height="18" fill="white" transform="translate(0.25)"/>
</clipPath>
</defs>
</svg>
