<svg width="20" height="18" viewBox="0 0 20 18" fill="none" xmlns="http://www.w3.org/2000/svg">
<path d="M3.5601 16.2733L9.05721 10.7761C9.38723 10.4461 9.55223 10.2811 9.74251 10.2193C9.90988 10.1649 10.0902 10.1649 10.2575 10.2193C10.4478 10.2811 10.6128 10.4461 10.9428 10.7761L16.4033 16.2366M11.6667 11.5L14.0572 9.10948C14.3872 8.77946 14.5522 8.61445 14.7425 8.55263C14.9099 8.49825 15.0902 8.49825 15.2575 8.55263C15.4478 8.61445 15.6128 8.77946 15.9428 9.10947L18.3334 11.5M8.33335 6.5C8.33335 7.42047 7.58716 8.16667 6.66669 8.16667C5.74621 8.16667 5.00002 7.42047 5.00002 6.5C5.00002 5.57953 5.74621 4.83333 6.66669 4.83333C7.58716 4.83333 8.33335 5.57953 8.33335 6.5ZM5.66669 16.5H14.3334C15.7335 16.5 16.4336 16.5 16.9683 16.2275C17.4387 15.9878 17.8212 15.6054 18.0609 15.135C18.3334 14.6002 18.3334 13.9001 18.3334 12.5V5.5C18.3334 4.09987 18.3334 3.3998 18.0609 2.86502C17.8212 2.39462 17.4387 2.01217 16.9683 1.77248C16.4336 1.5 15.7335 1.5 14.3334 1.5H5.66669C4.26656 1.5 3.56649 1.5 3.03171 1.77248C2.56131 2.01217 2.17885 2.39462 1.93917 2.86502C1.66669 3.3998 1.66669 4.09987 1.66669 5.5V12.5C1.66669 13.9001 1.66669 14.6002 1.93917 15.135C2.17885 15.6054 2.56131 15.9878 3.03171 16.2275C3.56649 16.5 4.26656 16.5 5.66669 16.5Z" stroke="white" stroke-width="2" stroke-linecap="round" stroke-linejoin="round"/>
</svg>
