<svg width="19" height="18" viewBox="0 0 19 18" fill="none" xmlns="http://www.w3.org/2000/svg">
<g clip-path="url(#clip0_15486_136823)">
<path d="M6 15C6.82843 15 7.5 14.3284 7.5 13.5C7.5 12.6716 6.82843 12 6 12C5.17157 12 4.5 12.6716 4.5 13.5C4.5 14.3284 5.17157 15 6 15Z" stroke="#914EFB" stroke-width="2" stroke-linecap="round" stroke-linejoin="round"/>
<path d="M6 6C6.82843 6 7.5 5.32843 7.5 4.5C7.5 3.67157 6.82843 3 6 3C5.17157 3 4.5 3.67157 4.5 4.5C4.5 5.32843 5.17157 6 6 6Z" stroke="#914EFB" stroke-width="2" stroke-linecap="round" stroke-linejoin="round"/>
<path d="M13.5 6C14.3284 6 15 5.32843 15 4.5C15 3.67157 14.3284 3 13.5 3C12.6716 3 12 3.67157 12 4.5C12 5.32843 12.6716 6 13.5 6Z" stroke="#914EFB" stroke-width="2" stroke-linecap="round" stroke-linejoin="round"/>
<path d="M6 6V12" stroke="#914EFB" stroke-width="2" stroke-linecap="round" stroke-linejoin="round"/>
<path d="M7.5 13.5H12C12.3978 13.5 12.7794 13.342 13.0607 13.0607C13.342 12.7794 13.5 12.3978 13.5 12V8.25" stroke="#914EFB" stroke-width="2" stroke-linecap="round" stroke-linejoin="round"/>
<path d="M11.25 10.5L13.5 8.25L15.75 10.5" stroke="#914EFB" stroke-width="2" stroke-linecap="round" stroke-linejoin="round"/>
</g>
<defs>
<clipPath id="clip0_15486_136823">
<rect width="18" height="18" fill="white" transform="translate(0.75)"/>
</clipPath>
</defs>
</svg>
