<svg width="18" height="18" viewBox="0 0 18 18" fill="none" xmlns="http://www.w3.org/2000/svg">
<path d="M6 12.7491H12M8.26327 2.07208L3.17654 6.02843C2.83652 6.29289 2.6665 6.42513 2.54402 6.59073C2.43552 6.73742 2.3547 6.90267 2.30552 7.07837C2.25 7.27672 2.25 7.49211 2.25 7.92287V13.3491C2.25 14.1892 2.25 14.6092 2.41349 14.9301C2.5573 15.2123 2.78677 15.4418 3.06901 15.5856C3.38988 15.7491 3.80992 15.7491 4.65 15.7491H13.35C14.1901 15.7491 14.6101 15.7491 14.931 15.5856C15.2132 15.4418 15.4427 15.2123 15.5865 14.9301C15.75 14.6092 15.75 14.1892 15.75 13.3491V7.92287C15.75 7.49211 15.75 7.27672 15.6945 7.07837C15.6453 6.90267 15.5645 6.73742 15.456 6.59073C15.3335 6.42513 15.1635 6.29289 14.8235 6.02843L9.73673 2.07208C9.47324 1.86714 9.34149 1.76467 9.19601 1.72529C9.06765 1.69053 8.93235 1.69053 8.80399 1.72529C8.65851 1.76467 8.52677 1.86714 8.26327 2.07208Z" stroke="#FFF" stroke-width="1.5" stroke-linecap="round" stroke-linejoin="round"/>
</svg>
