<svg width="18" height="19" viewBox="0 0 18 19" fill="none" xmlns="http://www.w3.org/2000/svg">
<g clip-path="url(#clip0_13248_37533)">
<path d="M3.75001 5.57268C3.75001 5.13507 3.92385 4.71539 4.23328 4.40595C4.54272 4.09652 4.9624 3.92268 5.40001 3.92268H6.15001C6.58568 3.92243 7.00358 3.74988 7.31251 3.44268L7.83751 2.91768C7.99085 2.76348 8.17315 2.64111 8.37394 2.55761C8.57473 2.47411 8.79005 2.43112 9.00751 2.43112C9.22497 2.43112 9.44029 2.47411 9.64108 2.55761C9.84187 2.64111 10.0242 2.76348 10.1775 2.91768L10.7025 3.44268C11.0115 3.75018 11.43 3.92268 11.865 3.92268H12.615C13.0526 3.92268 13.4723 4.09652 13.7817 4.40595C14.0912 4.71539 14.265 5.13507 14.265 5.57268V6.32268C14.265 6.75768 14.4375 7.17618 14.745 7.48518L15.27 8.01018C15.4242 8.16351 15.5466 8.34582 15.6301 8.54661C15.7136 8.7474 15.7566 8.96272 15.7566 9.18018C15.7566 9.39764 15.7136 9.61296 15.6301 9.81375C15.5466 10.0145 15.4242 10.1968 15.27 10.3502L14.745 10.8752C14.4378 11.1841 14.2653 11.602 14.265 12.0377V12.7877C14.265 13.2253 14.0912 13.645 13.7817 13.9544C13.4723 14.2638 13.0526 14.4377 12.615 14.4377H11.865C11.4293 14.4379 11.0114 14.6105 10.7025 14.9177L10.1775 15.4427C10.0242 15.5969 9.84187 15.7192 9.64108 15.8027C9.44029 15.8862 9.22497 15.9292 9.00751 15.9292C8.79005 15.9292 8.57473 15.8862 8.37394 15.8027C8.17315 15.7192 7.99085 15.5969 7.83751 15.4427L7.31251 14.9177C7.00358 14.6105 6.58568 14.4379 6.15001 14.4377H5.40001C4.9624 14.4377 4.54272 14.2638 4.23328 13.9544C3.92385 13.645 3.75001 13.2253 3.75001 12.7877V12.0377C3.74976 11.602 3.57721 11.1841 3.27001 10.8752L2.74501 10.3502C2.59081 10.1968 2.46844 10.0145 2.38494 9.81375C2.30144 9.61296 2.25845 9.39764 2.25845 9.18018C2.25845 8.96272 2.30144 8.7474 2.38494 8.54661C2.46844 8.34582 2.59081 8.16351 2.74501 8.01018L3.27001 7.48518C3.57721 7.17625 3.74976 6.75835 3.75001 6.32268V5.57268" stroke="#4BC0C0" stroke-width="2" stroke-linecap="round" stroke-linejoin="round"/>
<path d="M6.75 9.17267L8.25 10.6727L11.25 7.67267" stroke="#4BC0C0" stroke-width="2" stroke-linecap="round" stroke-linejoin="round"/>
</g>
<defs>
<clipPath id="clip0_13248_37533">
<rect width="18" height="18" fill="white" transform="translate(0 0.172668)"/>
</clipPath>
</defs>
</svg>
