<svg width="19" height="19" viewBox="0 0 19 19" fill="none" xmlns="http://www.w3.org/2000/svg">
<g clip-path="url(#clip0_13106_37304)">
<path d="M8 12.9227L11 9.92267" stroke="#E61B23" stroke-width="2" stroke-linecap="round" stroke-linejoin="round"/>
<path d="M11 2.42267V5.42267C11 5.62158 11.079 5.81235 11.2197 5.953C11.3603 6.09365 11.5511 6.17267 11.75 6.17267H14.75" stroke="#E61B23" stroke-width="2" stroke-linecap="round" stroke-linejoin="round"/>
<path d="M13.25 15.9227H5.75C5.35218 15.9227 4.97064 15.7646 4.68934 15.4833C4.40804 15.202 4.25 14.8205 4.25 14.4227V3.92267C4.25 3.52484 4.40804 3.14331 4.68934 2.86201C4.97064 2.5807 5.35218 2.42267 5.75 2.42267H11L14.75 6.17267V14.4227C14.75 14.8205 14.592 15.202 14.3107 15.4833C14.0294 15.7646 13.6478 15.9227 13.25 15.9227Z" stroke="#E61B23" stroke-width="2" stroke-linecap="round" stroke-linejoin="round"/>
<path d="M8 9.92267H8.0075" stroke="#E61B23" stroke-width="2" stroke-linecap="round" stroke-linejoin="round"/>
<path d="M11 12.9227H11.0075" stroke="#E61B23" stroke-width="2" stroke-linecap="round" stroke-linejoin="round"/>
</g>
<defs>
<clipPath id="clip0_13106_37304">
<rect width="18" height="18" fill="white" transform="translate(0.5 0.172668)"/>
</clipPath>
</defs>
</svg>
