<svg width="612" height="900" viewBox="0 0 612 900" fill="none" xmlns="http://www.w3.org/2000/svg">
<rect width="612" height="900" fill="#4B0DAF"/>
<g style="mix-blend-mode:lighten" opacity="0.3" clip-path="url(#clip0_6301_2980)">
<path d="M482.561 192.026C482.561 93.5956 402.768 13.8019 304.337 13.8019C205.907 13.8019 126.113 93.5956 126.113 192.026C126.113 290.456 205.907 370.25 304.337 370.25C402.768 370.25 482.561 290.456 482.561 192.026Z" fill="url(#paint0_linear_6301_2980)"/>
<path d="M170.553 511.446C170.553 486.909 150.661 467.017 126.124 467.017C101.587 467.017 81.6953 486.909 81.6953 511.446C81.6953 535.984 101.587 555.875 126.124 555.875C150.661 555.875 170.553 535.984 170.553 511.446Z" fill="url(#paint1_linear_6301_2980)"/>
<path d="M402.374 795.817C402.374 787.292 395.462 780.38 386.937 780.38C378.411 780.38 371.5 787.292 371.5 795.817C371.5 804.343 378.411 811.254 386.937 811.254C395.462 811.254 402.374 804.343 402.374 795.817Z" fill="url(#paint2_linear_6301_2980)"/>
<path d="M682.328 383.069C682.328 316.573 628.422 262.666 561.925 262.666C495.428 262.666 441.521 316.573 441.521 383.069C441.521 449.566 495.428 503.473 561.925 503.473C628.422 503.473 682.328 449.566 682.328 383.069Z" fill="url(#paint3_linear_6301_2980)"/>
</g>
<g clip-path="url(#clip1_6301_2980)">
<path d="M270.765 469.773C268.348 469.773 266.171 469.238 264.303 468.184C262.433 467.12 260.918 465.544 259.943 463.647C258.896 461.661 258.368 459.276 258.368 456.555C258.368 453.834 258.896 451.444 259.943 449.458C260.985 447.495 262.437 445.981 264.275 444.956C266.113 443.931 268.296 443.391 270.765 443.391C273.111 443.391 275.25 443.932 277.14 445.002C279.042 446.098 280.594 447.696 281.618 449.616C282.718 451.601 283.275 453.933 283.275 456.552C283.275 459.194 282.724 461.549 281.648 463.552C280.571 465.554 279.066 467.086 277.169 468.152C275.273 469.218 273.119 469.77 270.765 469.77V469.773ZM283.275 429.074V446.661C282.22 444.995 280.817 443.568 279.16 442.475C276.69 440.829 273.757 439.995 270.415 439.995C267.365 439.995 264.602 440.68 262.208 442.02C259.788 443.379 257.82 445.399 256.542 447.835C255.195 450.305 254.518 453.241 254.518 456.555C254.518 459.87 255.195 462.807 256.536 465.298C257.814 467.745 259.78 469.78 262.202 471.157C264.591 472.527 267.353 473.221 270.415 473.221C273.879 473.221 276.865 472.364 279.288 470.678C280.903 469.573 282.261 468.144 283.275 466.486V472.761H287.073V429.074H283.275Z" fill="white"/>
<path d="M307.005 469.772C304.583 469.772 302.41 469.237 300.555 468.183C298.68 467.124 297.164 465.547 296.194 463.646C295.146 461.672 294.619 459.284 294.619 456.554C294.619 453.825 295.146 451.431 296.194 449.457C297.218 447.5 298.676 445.986 300.526 444.955C302.375 443.924 304.547 443.39 307.005 443.39C309.351 443.39 311.494 443.931 313.379 445.001C315.283 446.097 316.836 447.695 317.862 449.615C318.964 451.606 319.519 453.944 319.519 456.551C319.519 459.199 318.975 461.553 317.898 463.55C316.822 465.548 315.305 467.085 313.408 468.151C311.51 469.217 309.358 469.768 307.005 469.768V469.772ZM319.519 440.397V446.631C318.493 444.999 317.131 443.596 315.521 442.512C313.098 440.842 310.114 439.996 306.66 439.996C303.61 439.996 300.848 440.675 298.441 442.021C296.035 443.368 294.145 445.32 292.782 447.836C291.435 450.329 290.756 453.265 290.756 456.557C290.756 459.848 291.435 462.786 292.782 465.307C294.129 467.829 296.036 469.789 298.44 471.167C300.844 472.545 303.602 473.222 306.659 473.222C310.072 473.222 313.051 472.364 315.497 470.678C317.12 469.579 318.49 468.157 319.518 466.505V472.761H323.318V440.397H319.519Z" fill="white"/>
<path d="M344.19 439.766V443.617H342.727C339.764 443.617 337.272 444.451 335.334 446.098C333.408 447.721 332.437 450.445 332.437 454.198V472.762H328.633V440.399H332.437V444.831C333.259 443.541 334.376 442.457 335.697 441.665C336.791 441.012 337.982 440.534 339.227 440.249C340.662 439.919 342.132 439.758 343.605 439.77L344.19 439.766Z" fill="white"/>
<path d="M354.802 443.793V463.854C354.802 465.984 355.182 467.441 355.927 468.194C356.671 468.947 358.057 469.311 360.064 469.311H364.215V472.759H359.654C356.734 472.759 354.539 472.056 353.134 470.67C351.729 469.283 350.998 466.992 350.998 463.854V443.793H346.209V440.394H350.998V432.465H354.802V440.397H364.215V443.797L354.802 443.793Z" fill="white"/>
<path d="M395.196 453.908V472.76H391.45V454.081C391.45 450.534 390.543 447.795 388.745 445.946C386.948 444.096 384.496 443.16 381.399 443.16C378.157 443.16 375.535 444.184 373.621 446.196C371.707 448.208 370.707 451.308 370.707 455.348V472.76H366.908V429.074H370.707V445.153C371.627 443.746 372.867 442.569 374.33 441.715C376.506 440.421 379.047 439.764 381.874 439.764C385.749 439.764 388.975 440.978 391.463 443.345C393.943 445.727 395.202 449.28 395.202 453.908H395.196Z" fill="white"/>
<path d="M255.104 432.399L252.574 435.294L252.204 434.98C246.735 430.355 239.761 427.811 232.548 427.811C225.334 427.811 218.36 430.355 212.892 434.98L212.527 435.294L210 432.399L210.37 432.091C216.54 426.871 224.409 424 232.548 424C240.687 424 248.556 426.871 254.726 432.091L255.096 432.399H255.104Z" fill="white"/>
<path d="M247.467 440.722V459.389H218.963V440.722C218.965 439.929 219.286 439.17 219.856 438.609C220.426 438.049 221.199 437.733 222.005 437.73H244.432C245.238 437.733 246.009 438.049 246.578 438.61C247.147 439.171 247.466 439.93 247.467 440.722V440.722Z" fill="#FF900E"/>
<path d="M247.468 459.39H218.964V440.722C218.967 439.929 219.288 439.17 219.858 438.609C220.429 438.048 221.201 437.732 222.008 437.731H244.434C245.239 437.733 246.011 438.049 246.58 438.61C247.149 439.171 247.468 439.93 247.468 440.722V459.39ZM250.412 437.291C249.8 436.267 248.927 435.418 247.88 434.826C246.832 434.235 245.646 433.922 244.439 433.918H222.008C220.175 433.92 218.417 434.637 217.121 435.912C215.825 437.187 215.096 438.915 215.094 440.718V475.369H218.964V463.202H247.468V475.369H251.353V440.722C251.354 439.517 251.029 438.333 250.412 437.291Z" fill="white"/>
</g>
<defs>
<linearGradient id="paint0_linear_6301_2980" x1="482.561" y1="192.026" x2="126.122" y2="192.026" gradientUnits="userSpaceOnUse">
<stop stop-color="#40A4FF"/>
<stop offset="1" stop-color="#311996"/>
</linearGradient>
<linearGradient id="paint1_linear_6301_2980" x1="170.551" y1="511.446" x2="81.6956" y2="511.446" gradientUnits="userSpaceOnUse">
<stop stop-color="#40A4FF"/>
<stop offset="1" stop-color="#311996"/>
</linearGradient>
<linearGradient id="paint2_linear_6301_2980" x1="386.932" y1="780.38" x2="386.932" y2="811.251" gradientUnits="userSpaceOnUse">
<stop stop-color="#40A4FF"/>
<stop offset="1" stop-color="#311996"/>
</linearGradient>
<linearGradient id="paint3_linear_6301_2980" x1="561.92" y1="503.472" x2="561.92" y2="262.661" gradientUnits="userSpaceOnUse">
<stop stop-color="#E12179"/>
<stop offset="1" stop-color="#311996"/>
</linearGradient>
<clipPath id="clip0_6301_2980">
<rect width="902" height="605" fill="white" transform="translate(7 904) rotate(-90)"/>
</clipPath>
<clipPath id="clip1_6301_2980">
<rect width="185.196" height="51.3682" fill="white" transform="translate(210 424)"/>
</clipPath>
</defs>
</svg>
