<svg width="100" height="28" viewBox="0 0 100 28" fill="none" xmlns="http://www.w3.org/2000/svg">
<g clip-path="url(#clip0_8347_16869)">
<path d="M32.8124 24.8512C31.5071 24.8512 30.3317 24.562 29.3231 23.9929C28.3131 23.4185 27.495 22.5674 26.9684 21.5435C26.4031 20.4709 26.1184 19.1832 26.1184 17.7139C26.1184 16.2447 26.4031 14.9537 26.9684 13.8818C27.5311 12.8216 28.3151 12.004 29.3077 11.4507C30.3004 10.8973 31.4791 10.6056 32.8124 10.6056C34.0791 10.6056 35.2337 10.898 36.2544 11.4756C37.2816 12.0672 38.1194 12.9304 38.6724 13.967C39.2664 15.039 39.5671 16.2978 39.5671 17.712C39.5671 19.1386 39.2697 20.4106 38.6884 21.4917C38.1071 22.5728 37.2944 23.4003 36.2704 23.9759C35.2464 24.5515 34.0831 24.8492 32.8124 24.8492V24.8512ZM39.5671 2.875V12.3712C38.9976 11.4715 38.2402 10.7012 37.3451 10.1112C36.0117 9.22219 34.4277 8.77177 32.6231 8.77177C30.9764 8.77177 29.4844 9.14154 28.1917 9.86536C26.8849 10.5992 25.8222 11.6898 25.1324 13.0052C24.4051 14.3387 24.0391 15.9241 24.0391 17.7139C24.0391 19.5038 24.4051 21.0898 25.1291 22.4345C25.8188 23.7562 26.8809 24.8546 28.1884 25.5986C29.4784 26.3381 30.9697 26.7132 32.6231 26.7132C34.4937 26.7132 36.1057 26.2503 37.4144 25.3396C38.2863 24.743 39.0199 23.9717 39.5671 23.0764V26.4647H41.6177V2.875H39.5671Z" fill="#161B1B"/>
<path d="M52.3795 24.8515C51.0715 24.8515 49.8981 24.5624 48.8968 23.9933C47.8845 23.4218 47.0655 22.5699 46.5421 21.5439C45.9761 20.4778 45.6915 19.1882 45.6915 17.7143C45.6915 16.2404 45.9761 14.9482 46.5421 13.8821C47.0948 12.8253 47.8821 12.0077 48.8808 11.451C49.8795 10.8944 51.0521 10.6059 52.3795 10.6059C53.6461 10.6059 54.8035 10.8983 55.8215 11.476C56.8493 12.0676 57.6879 12.9307 58.2421 13.9674C58.8368 15.0426 59.1368 16.3047 59.1368 17.7123C59.1368 19.1423 58.8428 20.4136 58.2615 21.4921C57.6801 22.5706 56.8615 23.4006 55.8368 23.9763C54.8121 24.5519 53.6501 24.8496 52.3795 24.8496V24.8515ZM59.1368 8.9898V12.3558C58.5826 11.4748 57.8473 10.7173 56.9781 10.1319C55.6695 9.23041 54.0581 8.77344 52.1935 8.77344C50.5461 8.77344 49.0548 9.13994 47.7555 9.86703C46.4561 10.5941 45.4355 11.6484 44.6995 13.0069C43.9721 14.3529 43.6055 15.9382 43.6055 17.7156C43.6055 19.493 43.9721 21.079 44.6995 22.4408C45.4268 23.8025 46.4568 24.8607 47.7548 25.6049C49.0528 26.349 50.5421 26.7142 52.1928 26.7142C54.0355 26.7142 55.6441 26.2513 56.9648 25.3406C57.8411 24.7473 58.5808 23.9796 59.1361 23.0872V26.4657H61.1881V8.9898H59.1368Z" fill="#161B1B"/>
<path d="M72.4593 8.64844V10.7281H71.6693C70.0693 10.7281 68.7233 11.1785 67.6773 12.0676C66.6373 12.9441 66.1126 14.4147 66.1126 16.4413V26.4653H64.0586V8.99068H66.1126V11.3837C66.5568 10.6873 67.1596 10.1019 67.8733 9.67385C68.4635 9.32158 69.1068 9.06355 69.7793 8.90938C70.554 8.73104 71.3476 8.64432 72.1433 8.65106L72.4593 8.64844Z" fill="#161B1B"/>
<path d="M78.1888 10.8202V21.6526C78.1888 22.8025 78.3942 23.5893 78.7962 23.9958C79.1982 24.4023 79.9462 24.599 81.0302 24.599H83.2715V26.461H80.8088C79.2322 26.461 78.0468 26.0814 77.2882 25.3326C76.5295 24.5839 76.1348 23.3467 76.1348 21.6526V10.8202H73.5488V8.98441H76.1348V4.70312H78.1888V8.98638H83.2715V10.8222L78.1888 10.8202Z" fill="#161B1B"/>
<path d="M100.001 16.2847V26.464H97.9786V16.3778C97.9786 14.4627 97.4886 12.9836 96.5179 11.985C95.5472 10.9865 94.2232 10.481 92.5512 10.481C90.8006 10.481 89.3846 11.0337 88.3512 12.1201C87.3179 13.2065 86.7779 14.8803 86.7779 17.0623V26.464H84.7266V2.875H86.7779V11.5569C87.2743 10.7971 87.9441 10.1616 88.7339 9.7008C89.9092 9.00189 91.2812 8.64719 92.8079 8.64719C94.8999 8.64719 96.6419 9.30283 97.9852 10.5807C99.3246 11.867 100.005 13.7854 100.005 16.2847H100.001Z" fill="#161B1B"/>
<path d="M24.3547 4.66781L22.9887 6.23149L22.7887 6.06168C19.8356 3.56417 16.0698 2.19076 12.175 2.19076C8.28015 2.19076 4.5144 3.56417 1.56133 6.06168L1.36467 6.23149L0 4.66781L0.2 4.50193C3.53146 1.68305 7.78051 0.132812 12.1753 0.132812C16.5702 0.132812 20.8192 1.68305 24.1507 4.50193L24.3507 4.66781H24.3547Z" fill="#161B1B"/>
<path d="M20.2312 9.16236V19.2421H4.83984V9.16236C4.84108 8.73428 5.01454 8.32408 5.32233 8.02138C5.63012 7.71868 6.04723 7.54809 6.48251 7.54688H18.5925C19.0274 7.54826 19.444 7.71904 19.7511 8.02181C20.0582 8.32458 20.2308 8.73469 20.2312 9.16236Z" fill="#914EFB"/>
<path d="M20.2313 19.2422H4.84V9.16245C4.84123 8.73426 5.01478 8.32396 5.32272 8.02124C5.63066 7.71852 6.04793 7.54801 6.48333 7.54697H18.5927C19.0276 7.54818 19.4443 7.7189 19.7514 8.02171C20.0586 8.32452 20.2312 8.73473 20.2313 9.16245V19.2422ZM21.8207 7.30963C21.4901 6.75676 21.0189 6.29806 20.4534 5.9787C19.8878 5.65934 19.2475 5.49032 18.5953 5.48828H6.48333C5.49357 5.4895 4.5447 5.87671 3.84483 6.56499C3.14496 7.25328 2.75123 8.18645 2.75 9.15983V27.8703H4.84V21.3008H20.2313V27.8703H22.3287V9.16245C22.3293 8.51148 22.154 7.87203 21.8207 7.30963Z" fill="#161B1B"/>
</g>
<defs>
<clipPath id="clip0_8347_16869">
<rect width="100" height="27.7372" fill="white" transform="translate(0 0.132812)"/>
</clipPath>
</defs>
</svg>
