<svg width="310" height="86" viewBox="0 0 310 86" fill="none" xmlns="http://www.w3.org/2000/svg">
<g clip-path="url(#clip0_1141_20867)">
<path d="M101.717 76.6299C97.6703 76.6299 94.0268 75.7334 90.8999 73.9689C87.7691 72.1877 85.2329 69.5489 83.6005 66.3744C81.8479 63.0487 80.9655 59.0563 80.9655 54.5007C80.9655 49.9452 81.8479 45.9426 83.6005 42.619C85.3447 39.3319 87.7751 36.797 90.8524 35.0813C93.9297 33.3656 97.5835 32.461 101.717 32.461C105.644 32.461 109.223 33.3677 112.387 35.1586C115.571 36.9927 118.168 39.6691 119.883 42.8832C121.724 46.2069 122.656 50.1099 122.656 54.4946C122.656 58.918 121.735 62.8617 119.932 66.2138C118.13 69.5659 115.611 72.1313 112.437 73.9161C109.262 75.7009 105.656 76.6238 101.717 76.6238V76.6299ZM122.656 8.49219V37.9354C120.891 35.146 118.543 32.7575 115.768 30.9283C111.635 28.1718 106.724 26.7753 101.13 26.7753C96.0253 26.7753 91.4001 27.9218 87.3928 30.166C83.3415 32.4414 80.0473 35.8228 77.9089 39.9011C75.6541 44.0358 74.5195 48.9512 74.5195 54.5007C74.5195 60.0503 75.6541 64.9677 77.8985 69.137C80.0367 73.2349 83.3291 76.6406 87.3825 78.9473C91.3815 81.2403 96.0046 82.4031 101.13 82.4031C106.929 82.4031 111.926 80.9679 115.983 78.1443C118.686 76.2946 120.96 73.9031 122.656 71.1271V81.6326H129.013V8.49219H122.656Z" fill="white"/>
<path d="M162.376 76.6318C158.321 76.6318 154.684 75.7353 151.58 73.9709C148.442 72.199 145.903 69.5577 144.28 66.3763C142.526 63.0709 141.643 59.0724 141.643 54.5027C141.643 49.9329 142.526 45.9262 144.28 42.6209C145.994 39.344 148.434 36.8091 151.53 35.0832C154.626 33.3574 158.261 32.463 162.376 32.463C166.303 32.463 169.891 33.3696 173.046 35.1605C176.233 36.9948 178.832 39.6709 180.55 42.8852C182.394 46.219 183.324 50.1321 183.324 54.4966C183.324 58.9301 182.412 62.8717 180.61 66.2157C178.808 69.5597 176.27 72.1332 173.094 73.918C169.917 75.7028 166.315 76.6257 162.376 76.6257V76.6318ZM183.324 27.4521V37.8885C181.606 35.1568 179.326 32.8082 176.632 30.9932C172.575 28.1981 167.58 26.7812 161.8 26.7812C156.693 26.7812 152.07 27.9176 148.042 30.172C144.014 32.4264 140.85 35.6951 138.568 39.9071C136.313 44.0804 135.177 48.9958 135.177 54.5067C135.177 60.0177 136.313 64.935 138.568 69.1572C140.823 73.3793 144.016 76.6603 148.04 78.9675C152.063 81.2747 156.68 82.407 161.797 82.407C167.51 82.407 172.497 80.9718 176.591 78.1483C179.307 76.3087 181.6 73.9284 183.322 71.1615V81.6366H189.683V27.4521H183.324Z" fill="white"/>
<path d="M224.622 26.3945V32.8426H222.173C217.213 32.8426 213.041 34.2391 209.798 36.9956C206.574 39.7135 204.947 44.2731 204.947 50.5565V81.6361H198.58V27.4557H204.947V34.8754C206.325 32.716 208.193 30.9011 210.406 29.5738C212.235 28.4816 214.23 27.6816 216.314 27.2036C218.716 26.6506 221.176 26.3818 223.642 26.4027L224.622 26.3945Z" fill="white"/>
<path d="M242.385 33.1399V66.726C242.385 70.2916 243.022 72.7309 244.268 73.9913C245.514 75.2516 247.833 75.8614 251.193 75.8614H258.141V81.6346H250.507C245.619 81.6346 241.945 80.4576 239.593 78.1362C237.241 75.8147 236.018 71.9788 236.018 66.726V33.1399H228.001V27.4481H236.018V14.1738H242.385V27.4542H258.141V33.146L242.385 33.1399Z" fill="white"/>
<path d="M309.999 50.0692V81.6306H303.729V50.3579C303.729 44.42 302.21 39.834 299.201 36.7381C296.192 33.6421 292.087 32.0748 286.904 32.0748C281.477 32.0748 277.087 33.7885 273.884 37.1568C270.681 40.5252 269.007 45.7149 269.007 52.4801V81.6306H262.647V8.49219H269.007V35.4106C270.546 33.0549 272.622 31.0844 275.07 29.6558C278.714 27.4888 282.967 26.389 287.7 26.389C294.185 26.389 299.585 28.4218 303.749 32.3838C307.901 36.3722 310.009 42.3201 310.009 50.0692H309.999Z" fill="white"/>
<path d="M75.4995 14.0609L71.2649 18.9091L70.6449 18.3826C61.4904 10.639 49.8165 6.38072 37.7425 6.38072C25.6685 6.38072 13.9946 10.639 4.84013 18.3826L4.23047 18.9091L0 14.0609L0.62 13.5466C10.9475 4.80655 24.1196 0 37.7435 0C51.3675 0 64.5395 4.80655 74.8671 13.5466L75.4871 14.0609H75.4995Z" fill="white"/>
<path d="M62.717 27.9991V59.2515H15.0039V27.9991C15.0077 26.6718 15.5455 25.4 16.4996 24.4614C17.4538 23.5229 18.7468 22.994 20.0962 22.9902H57.6372C58.9852 22.9945 60.2767 23.524 61.2287 24.4628C62.1808 25.4015 62.7159 26.6731 62.717 27.9991V27.9991Z" fill="#FF900E"/>
<path d="M62.7185 59.2517H15.0054V27.9993C15.0092 26.6717 15.5472 25.3995 16.5018 24.4609C17.4564 23.5223 18.75 22.9937 20.0997 22.9904H57.6386C58.9868 22.9942 60.2786 23.5235 61.2308 24.4624C62.183 25.4013 62.7179 26.6731 62.7185 27.9993V59.2517ZM67.6454 22.2546C66.6208 20.5404 65.16 19.1182 63.4068 18.128C61.6536 17.1378 59.6685 16.6137 57.6469 16.6074H20.0997C17.0314 16.6112 14.0899 17.8118 11.9203 19.9458C9.75075 22.0798 8.5302 24.9732 8.52637 27.9911V86.0034H15.0054V65.6347H62.7185V86.0034H69.2202V27.9993C69.2223 25.9809 68.6788 23.9983 67.6454 22.2546Z" fill="white"/>
</g>
<defs>
<clipPath id="clip0_1141_20867">
<rect width="310" height="86" fill="white"/>
</clipPath>
</defs>
</svg>
