<svg width="18" height="18" viewBox="0 0 18 18" fill="none" xmlns="http://www.w3.org/2000/svg">
<path d="M15.75 3.75C15.75 4.99264 12.7279 6 9 6C5.27208 6 2.25 4.99264 2.25 3.75M15.75 3.75C15.75 2.50736 12.7279 1.5 9 1.5C5.27208 1.5 2.25 2.50736 2.25 3.75M15.75 3.75V14.25C15.75 15.495 12.75 16.5 9 16.5C5.25 16.5 2.25 15.495 2.25 14.25V3.75M15.75 7.29016C15.75 8.53516 12.75 9.54016 9 9.54016C5.25 9.54016 2.25 8.53516 2.25 7.29016M15.75 10.83C15.75 12.075 12.75 13.08 9 13.08C5.25 13.08 2.25 12.075 2.25 10.83" stroke="#4B0DAF" stroke-width="1.5" stroke-linecap="round" stroke-linejoin="round"/>
</svg>
