<svg width="18" height="18" viewBox="0 0 18 18" fill="none" xmlns="http://www.w3.org/2000/svg">
<path d="M10.5005 15.75H7.50047M1.72085 4.36492C1.71009 3.27641 2.29695 2.25993 3.24501 1.725M16.2771 4.36492C16.2879 3.27641 15.701 2.25994 14.753 1.725M13.5005 6C13.5005 4.80653 13.0264 3.66193 12.1824 2.81802C11.3385 1.97411 10.1939 1.5 9.00047 1.5C7.80699 1.5 6.6624 1.97411 5.81849 2.81802C4.97457 3.66193 4.50047 4.80653 4.50047 6C4.50047 8.31764 3.91582 9.90447 3.26272 10.9541C2.71181 11.8394 2.43636 12.2821 2.44646 12.4056C2.45764 12.5423 2.48661 12.5944 2.5968 12.6762C2.69631 12.75 3.14491 12.75 4.04211 12.75H13.9588C14.856 12.75 15.3046 12.75 15.4041 12.6762C15.5143 12.5944 15.5433 12.5423 15.5545 12.4056C15.5646 12.2821 15.2891 11.8394 14.7382 10.9541C14.0851 9.90447 13.5005 8.31764 13.5005 6Z" stroke="#969EA1" stroke-width="1.5" stroke-linecap="round" stroke-linejoin="round"/>
</svg>
