<svg width="19" height="18" viewBox="0 0 19 18" fill="none" xmlns="http://www.w3.org/2000/svg">
<path d="M6.8457 11.25H11.3457M15.8457 6H2.3457M12.0957 1.5V3.75M6.0957 1.5V3.75M5.9457 16.5H12.2457C13.5058 16.5 14.1359 16.5 14.6172 16.2548C15.0405 16.039 15.3847 15.6948 15.6005 15.2715C15.8457 14.7902 15.8457 14.1601 15.8457 12.9V6.6C15.8457 5.33988 15.8457 4.70982 15.6005 4.22852C15.3847 3.80516 15.0405 3.46095 14.6172 3.24524C14.1359 3 13.5058 3 12.2457 3H5.9457C4.68558 3 4.05552 3 3.57422 3.24524C3.15086 3.46095 2.80665 3.80516 2.59094 4.22852C2.3457 4.70982 2.3457 5.33988 2.3457 6.6V12.9C2.3457 14.1601 2.3457 14.7902 2.59094 15.2715C2.80665 15.6948 3.15086 16.039 3.57422 16.2548C4.05552 16.5 4.68558 16.5 5.9457 16.5Z" stroke="#914EFB" stroke-width="1.5" stroke-linecap="round" stroke-linejoin="round"/>
</svg>
