<svg width="19" height="19" viewBox="0 0 19 19" fill="none" xmlns="http://www.w3.org/2000/svg">
<g clip-path="url(#clip0_13545_6997)">
<path d="M14.75 7.29317H7.25C6.42157 7.29317 5.75 7.96474 5.75 8.79317V13.2932C5.75 14.1216 6.42157 14.7932 7.25 14.7932H14.75C15.5784 14.7932 16.25 14.1216 16.25 13.2932V8.79317C16.25 7.96474 15.5784 7.29317 14.75 7.29317Z" stroke="#0EA8FF" stroke-width="2" stroke-linecap="round" stroke-linejoin="round"/>
<path d="M11 12.5432C11.8284 12.5432 12.5 11.8716 12.5 11.0432C12.5 10.2147 11.8284 9.54317 11 9.54317C10.1716 9.54317 9.5 10.2147 9.5 11.0432C9.5 11.8716 10.1716 12.5432 11 12.5432Z" stroke="#0EA8FF" stroke-width="2" stroke-linecap="round" stroke-linejoin="round"/>
<path d="M13.25 7.29317V5.79317C13.25 5.39534 13.092 5.01381 12.8107 4.73251C12.5294 4.4512 12.1478 4.29317 11.75 4.29317H4.25C3.85218 4.29317 3.47064 4.4512 3.18934 4.73251C2.90804 5.01381 2.75 5.39534 2.75 5.79317V10.2932C2.75 10.691 2.90804 11.0725 3.18934 11.3538C3.47064 11.6351 3.85218 11.7932 4.25 11.7932H5.75" stroke="#0EA8FF" stroke-width="2" stroke-linecap="round" stroke-linejoin="round"/>
</g>
<defs>
<clipPath id="clip0_13545_6997">
<rect width="18" height="18" fill="white" transform="translate(0.5 0.543167)"/>
</clipPath>
</defs>
</svg>
