<svg width="39" height="39" viewBox="0 0 39 39" fill="none" xmlns="http://www.w3.org/2000/svg">
<path d="M22.75 3.25H9.75C8.88805 3.25 8.0614 3.59241 7.4519 4.2019C6.84241 4.8114 6.5 5.63805 6.5 6.5V32.5C6.5 33.362 6.84241 34.1886 7.4519 34.7981C8.0614 35.4076 8.88805 35.75 9.75 35.75H29.25C30.112 35.75 30.9386 35.4076 31.5481 34.7981C32.1576 34.1886 32.5 33.362 32.5 32.5V13L22.75 3.25Z" fill="#E61B23"/>
<path d="M12.544 25V19.4H14.616C15.064 19.4 15.4347 19.4747 15.728 19.624C16.0213 19.7733 16.24 19.9787 16.384 20.24C16.528 20.5013 16.6 20.7947 16.6 21.12C16.6 21.4293 16.5307 21.7147 16.392 21.976C16.2533 22.232 16.0373 22.44 15.744 22.6C15.4507 22.7547 15.0747 22.832 14.616 22.832H13.568V25H12.544ZM13.568 22H14.552C14.9093 22 15.1653 21.9227 15.32 21.768C15.48 21.608 15.56 21.392 15.56 21.12C15.56 20.8427 15.48 20.6267 15.32 20.472C15.1653 20.312 14.9093 20.232 14.552 20.232H13.568V22ZM17.3234 25V19.4H19.2354C19.8914 19.4 20.43 19.5173 20.8514 19.752C21.278 19.9813 21.5927 20.3067 21.7954 20.728C22.0034 21.144 22.1074 21.6347 22.1074 22.2C22.1074 22.7653 22.0034 23.2587 21.7954 23.68C21.5927 24.096 21.278 24.4213 20.8514 24.656C20.43 24.8853 19.8914 25 19.2354 25H17.3234ZM18.3474 24.12H19.1874C19.6567 24.12 20.0274 24.0453 20.2994 23.896C20.5714 23.7413 20.766 23.5227 20.8834 23.24C21.0007 22.952 21.0594 22.6053 21.0594 22.2C21.0594 21.8 21.0007 21.456 20.8834 21.168C20.766 20.88 20.5714 20.6587 20.2994 20.504C20.0274 20.3493 19.6567 20.272 19.1874 20.272H18.3474V24.12ZM22.9309 25V19.4H26.5469V20.224H23.9549V21.792H26.0509V22.6H23.9549V25H22.9309Z" fill="white"/>
</svg>
