<svg width="18" height="20" viewBox="0 0 18 20" fill="none" xmlns="http://www.w3.org/2000/svg">
<path d="M1.49999 0H12.1206L17.75 5.60752V18.75C17.75 19.4406 17.19 20 16.5 20H1.49999C0.809969 20 0.25 19.4406 0.25 18.75V1.24999C0.25 0.559387 0.810034 0 1.49999 0Z" fill="#E2574C"/>
<path d="M17.7319 5.62495H13.375C12.685 5.62495 12.125 5.06498 12.125 4.37496V0.0124512L17.7319 5.62495Z" fill="#B53629"/>
<path d="M13.0628 9.47695C13.2722 9.47695 13.3747 9.29445 13.3747 9.11758C13.3747 8.93444 13.2678 8.75757 13.0628 8.75757H11.8703C11.6372 8.75757 11.5072 8.95067 11.5072 9.16382V12.0944C11.5072 12.3557 11.6559 12.5007 11.8572 12.5007C12.0572 12.5007 12.2066 12.3557 12.2066 12.0944V11.2901H12.9278C13.1516 11.2901 13.2635 11.1069 13.2635 10.9251C13.2635 10.747 13.1516 10.57 12.9278 10.57H12.2066V9.47695H13.0628ZM9.03218 8.75757H8.15967C7.92279 8.75757 7.75465 8.92008 7.75465 9.1613V12.0969C7.75465 12.3963 7.99651 12.4901 8.16963 12.4901H9.08528C10.169 12.4901 10.8846 11.777 10.8846 10.6763C10.884 9.51258 10.2103 8.75757 9.03218 8.75757ZM9.07409 11.7664H8.54219V9.48134H9.02158C9.74723 9.48134 10.0628 9.96824 10.0628 10.6401C10.0628 11.2689 9.75279 11.7664 9.07409 11.7664ZM5.87782 8.75757H5.01345C4.76907 8.75757 4.63281 8.91879 4.63281 9.16382V12.0944C4.63281 12.3557 4.78905 12.5007 4.99903 12.5007C5.20901 12.5007 5.36525 12.3557 5.36525 12.0944V11.2388H5.90712C6.57586 11.2388 7.12774 10.765 7.12774 10.0032C7.12781 9.25759 6.59532 8.75757 5.87782 8.75757ZM5.86346 10.5514H5.36532V9.44571H5.86346C6.17097 9.44571 6.36659 9.6857 6.36659 9.99883C6.36594 10.3114 6.17097 10.5514 5.86346 10.5514Z" fill="white"/>
</svg>
