<svg width="24" height="26" viewBox="0 0 24 26" fill="none" xmlns="http://www.w3.org/2000/svg">
<path d="M21.7318 10.9342C21.7318 18.1656 12.4342 24.364 12.4342 24.364C12.4342 24.364 3.13672 18.1656 3.13672 10.9342C3.13672 8.46838 4.11628 6.10352 5.8599 4.3599C7.60352 2.61628 9.96838 1.63672 12.4342 1.63672C14.9001 1.63672 17.265 2.61628 19.0086 4.3599C20.7522 6.10352 21.7318 8.46838 21.7318 10.9342Z" fill="#914EFB"/>
<path d="M12.4332 14.0343C14.1448 14.0343 15.5323 12.6467 15.5323 10.9351C15.5323 9.22348 14.1448 7.83594 12.4332 7.83594C10.7215 7.83594 9.33398 9.22348 9.33398 10.9351C9.33398 12.6467 10.7215 14.0343 12.4332 14.0343Z" fill="white"/>
</svg>
