<svg width="18" height="19" viewBox="0 0 18 19" fill="none" xmlns="http://www.w3.org/2000/svg">
<g clip-path="url(#clip0_13169_48712)">
<path d="M10.5 2.42267V5.42267C10.5 5.62158 10.579 5.81235 10.7197 5.953C10.8603 6.09365 11.0511 6.17267 11.25 6.17267H14.25" stroke="#4BC0C0" stroke-width="2" stroke-linecap="round" stroke-linejoin="round"/>
<path d="M12.75 15.9227H5.25C4.85218 15.9227 4.47064 15.7646 4.18934 15.4833C3.90804 15.202 3.75 14.8205 3.75 14.4227V3.92267C3.75 3.52484 3.90804 3.14331 4.18934 2.86201C4.47064 2.5807 4.85218 2.42267 5.25 2.42267H10.5L14.25 6.17267V14.4227C14.25 14.8205 14.092 15.202 13.8107 15.4833C13.5294 15.7646 13.1478 15.9227 12.75 15.9227Z" stroke="#4BC0C0" stroke-width="2" stroke-linecap="round" stroke-linejoin="round"/>
<path d="M6.75 11.4227L8.25 12.9227L11.25 9.92267" stroke="#4BC0C0" stroke-width="2" stroke-linecap="round" stroke-linejoin="round"/>
</g>
<defs>
<clipPath id="clip0_13169_48712">
<rect width="18" height="18" fill="white" transform="translate(0 0.172668)"/>
</clipPath>
</defs>
</svg>
