<svg width="19" height="19" viewBox="0 0 19 19" fill="none" xmlns="http://www.w3.org/2000/svg">
<g clip-path="url(#clip0_13169_48722)">
<path d="M9.33331 13.6727H4.08331C3.68549 13.6727 3.30396 13.5146 3.02265 13.2333C2.74135 12.952 2.58331 12.5705 2.58331 12.1727V4.67267C2.58331 4.27484 2.74135 3.89331 3.02265 3.61201C3.30396 3.3307 3.68549 3.17267 4.08331 3.17267H14.5833C14.9811 3.17267 15.3627 3.3307 15.644 3.61201C15.9253 3.89331 16.0833 4.27484 16.0833 4.67267V10.2977" stroke="#FF900E" stroke-width="2" stroke-linecap="round" stroke-linejoin="round"/>
<path d="M2.58331 4.67267L9.33331 9.17267L16.0833 4.67267" stroke="#FF900E" stroke-width="2" stroke-linecap="round" stroke-linejoin="round"/>
<path d="M11.5833 13.6727H16.0833" stroke="#FF900E" stroke-width="2" stroke-linecap="round" stroke-linejoin="round"/>
<path d="M13.8333 11.4227L16.0833 13.6727L13.8333 15.9227" stroke="#FF900E" stroke-width="2" stroke-linecap="round" stroke-linejoin="round"/>
</g>
<defs>
<clipPath id="clip0_13169_48722">
<rect width="18" height="18" fill="white" transform="translate(0.333313 0.172668)"/>
</clipPath>
</defs>
</svg>
