<svg width="18" height="18" viewBox="0 0 18 18" fill="none" xmlns="http://www.w3.org/2000/svg">
<path d="M15 5.25V5.1C15 3.83988 15 3.20982 14.7548 2.72852C14.539 2.30516 14.1948 1.96095 13.7715 1.74524C13.2902 1.5 12.6601 1.5 11.4 1.5H6.6C5.33988 1.5 4.70982 1.5 4.22852 1.74524C3.80516 1.96095 3.46095 2.30516 3.24524 2.72852C3 3.20982 3 3.83988 3 5.1V12.9C3 14.1601 3 14.7902 3.24524 15.2715C3.46095 15.6948 3.80516 16.039 4.22852 16.2548C4.70982 16.5 5.33988 16.5 6.6 16.5H9.375M9.375 8.25H6M8.625 11.25H6M12 5.25H6M13.5 13.5V9.375C13.5 8.75368 14.0037 8.25 14.625 8.25C15.2463 8.25 15.75 8.75368 15.75 9.375V13.5C15.75 14.7426 14.7426 15.75 13.5 15.75C12.2574 15.75 11.25 14.7426 11.25 13.5V10.5" stroke="#4B0DAF" stroke-width="1.5" stroke-linecap="round" stroke-linejoin="round"/>
</svg>
