<svg width="19" height="19" viewBox="0 0 19 19" fill="none" xmlns="http://www.w3.org/2000/svg">
<g clip-path="url(#clip0_13169_48717)">
<path d="M11.1667 2.42267V5.42267C11.1667 5.62158 11.2457 5.81235 11.3863 5.953C11.527 6.09365 11.7178 6.17267 11.9167 6.17267H14.9167" stroke="#914EFB" stroke-width="2" stroke-linecap="round" stroke-linejoin="round"/>
<path d="M13.4167 15.9227H5.91667C5.51885 15.9227 5.13732 15.7646 4.85601 15.4833C4.57471 15.202 4.41667 14.8205 4.41667 14.4227V3.92267C4.41667 3.52484 4.57471 3.14331 4.85601 2.86201C5.13732 2.5807 5.51885 2.42267 5.91667 2.42267H11.1667L14.9167 6.17267V14.4227C14.9167 14.8205 14.7586 15.202 14.4773 15.4833C14.196 15.7646 13.8145 15.9227 13.4167 15.9227Z" stroke="#914EFB" stroke-width="2" stroke-linecap="round" stroke-linejoin="round"/>
<path d="M8.16667 13.6727L11.9167 9.92266C12.1156 9.72375 12.2273 9.45396 12.2273 9.17266C12.2273 8.89135 12.1156 8.62157 11.9167 8.42266C11.7178 8.22375 11.448 8.112 11.1667 8.112C10.8854 8.112 10.6156 8.22375 10.4167 8.42266L6.66667 12.1727V13.6727H8.16667Z" stroke="#914EFB" stroke-width="2" stroke-linecap="round" stroke-linejoin="round"/>
</g>
<defs>
<clipPath id="clip0_13169_48717">
<rect width="18" height="18" fill="white" transform="translate(0.666672 0.172668)"/>
</clipPath>
</defs>
</svg>
