<svg width="18" height="18" viewBox="0 0 18 18" fill="none" xmlns="http://www.w3.org/2000/svg">
<path d="M9 12V15.75M9 12L13.5 15.75M9 12L4.5 15.75M6 5.25V9M9 6.75V9M12 8.25V9M16.5 2.25H1.5M2.25 2.25H15.75V8.4C15.75 9.66012 15.75 10.2902 15.5048 10.7715C15.289 11.1948 14.9448 11.539 14.5215 11.7548C14.0402 12 13.4101 12 12.15 12H5.85C4.58988 12 3.95982 12 3.47852 11.7548C3.05516 11.539 2.71095 11.1948 2.49524 10.7715C2.25 10.2902 2.25 9.66012 2.25 8.4V2.25Z" stroke="#4B0DAF" stroke-width="1.5" stroke-linecap="round" stroke-linejoin="round"/>
</svg>
