<svg width="18" height="18" viewBox="0 0 18 18" fill="none" xmlns="http://www.w3.org/2000/svg">
<path d="M2.625 6H12M12 6V15.375M12 6L15.375 2.625M15.75 11.5029V2.85C15.75 2.63998 15.75 2.53497 15.7091 2.45475C15.6732 2.38419 15.6158 2.32683 15.5452 2.29087C15.465 2.25 15.36 2.25 15.15 2.25H6.49706C6.31361 2.25 6.22189 2.25 6.13558 2.27072C6.05905 2.2891 5.98589 2.3194 5.91879 2.36052C5.8431 2.4069 5.77824 2.47176 5.64853 2.60147L2.60147 5.64853C2.47176 5.77824 2.4069 5.8431 2.36052 5.91879C2.3194 5.98589 2.2891 6.05905 2.27072 6.13558C2.25 6.22189 2.25 6.31361 2.25 6.49706V15.15C2.25 15.36 2.25 15.465 2.29087 15.5452C2.32683 15.6158 2.38419 15.6732 2.45475 15.7091C2.53497 15.75 2.63998 15.75 2.85 15.75H11.5029C11.6864 15.75 11.7781 15.75 11.8644 15.7293C11.941 15.7109 12.0141 15.6806 12.0812 15.6395C12.1569 15.5931 12.2218 15.5282 12.3515 15.3985L15.3985 12.3515C15.5282 12.2218 15.5931 12.1569 15.6395 12.0812C15.6806 12.0141 15.7109 11.941 15.7293 11.8644C15.75 11.7781 15.75 11.6864 15.75 11.5029Z" stroke="#FF900E" stroke-width="1.5" stroke-linecap="round" stroke-linejoin="round"/>
</svg>
