<svg width="18" height="18" viewBox="0 0 18 18" fill="none" xmlns="http://www.w3.org/2000/svg">
<path d="M12.15 2.25H5.85C4.58988 2.25 3.95982 2.25 3.47852 2.49524C3.05516 2.71095 2.71095 3.05516 2.49524 3.47852C2.25 3.95982 2.25 4.58988 2.25 5.85V12.15C2.25 13.4101 2.25 14.0402 2.49524 14.5215C2.71095 14.9448 3.05516 15.289 3.47852 15.5048C3.95982 15.75 4.58988 15.75 5.85 15.75H12.15C13.4101 15.75 14.0402 15.75 14.5215 15.5048C14.9448 15.289 15.289 14.9448 15.5048 14.5215C15.75 14.0402 15.75 13.4101 15.75 12.15V5.85M12.15 2.25C13.4101 2.25 14.0402 2.25 14.5215 2.49524C14.9448 2.71095 15.289 3.05516 15.5048 3.47852C15.75 3.95982 15.75 4.58988 15.75 5.85M12.15 2.25H11.4C10.5599 2.25 10.1399 2.25 9.81901 2.41349C9.53677 2.5573 9.3073 2.78677 9.16349 3.06901C9 3.38988 9 3.80992 9 4.65V6.6C9 7.44008 9 7.86012 9.16349 8.18099C9.3073 8.46323 9.53677 8.6927 9.81901 8.83651C10.1399 9 10.5599 9 11.4 9H13.35C14.1901 9 14.6101 9 14.931 8.83651C15.2132 8.6927 15.4427 8.46323 15.5865 8.18099C15.75 7.86012 15.75 7.44008 15.75 6.6V5.85M9.375 8.625L5.25 12.75M5.25 12.75H9M5.25 12.75L5.25 9" stroke="#FF900E" stroke-width="1.5" stroke-linecap="round" stroke-linejoin="round"/>
</svg>
