<svg width="19" height="19" viewBox="0 0 19 19" fill="none" xmlns="http://www.w3.org/2000/svg">
<path d="M16.4804 6.61423H2.98044M12.7304 2.11423V4.36423M6.73044 2.11423V4.36423M9.73044 14.1142V9.61423M7.48044 11.8642H11.9804M6.58044 17.1142H12.8804C14.1405 17.1142 14.7706 17.1142 15.2519 16.869C15.6752 16.6532 16.0194 16.309 16.2352 15.8857C16.4804 15.4044 16.4804 14.7743 16.4804 13.5142V7.21423C16.4804 5.95411 16.4804 5.32405 16.2352 4.84275C16.0194 4.41939 15.6752 4.07518 15.2519 3.85947C14.7706 3.61423 14.1405 3.61423 12.8804 3.61423H6.58044C5.32032 3.61423 4.69026 3.61423 4.20896 3.85947C3.7856 4.07518 3.44139 4.41939 3.22568 4.84275C2.98044 5.32405 2.98044 5.95411 2.98044 7.21423V13.5142C2.98044 14.7743 2.98044 15.4044 3.22568 15.8857C3.44139 16.309 3.7856 16.6532 4.20896 16.869C4.69026 17.1142 5.32032 17.1142 6.58044 17.1142Z" stroke="#FF900E" stroke-width="1.5" stroke-linecap="round" stroke-linejoin="round"/>
</svg>
