<svg width="18" height="18" viewBox="0 0 18 18" fill="none" xmlns="http://www.w3.org/2000/svg">
<path d="M13.4996 11.8777C14.5916 12.4262 15.5277 13.3065 16.2111 14.4072C16.3464 14.6252 16.414 14.7342 16.4374 14.8851C16.485 15.1918 16.2752 15.5689 15.9896 15.6903C15.849 15.75 15.6909 15.75 15.3746 15.75M11.9996 8.64918C13.1109 8.09692 13.8746 6.95015 13.8746 5.625C13.8746 4.29985 13.1109 3.15308 11.9996 2.60082M10.4996 5.625C10.4996 7.48896 8.98859 9 7.12463 9C5.26067 9 3.74963 7.48896 3.74963 5.625C3.74963 3.76104 5.26067 2.25 7.12463 2.25C8.98859 2.25 10.4996 3.76104 10.4996 5.625ZM1.91906 14.2038C3.11479 12.4084 5.00166 11.25 7.12463 11.25C9.2476 11.25 11.1345 12.4084 12.3302 14.2038C12.5922 14.5971 12.7231 14.7937 12.7081 15.0449C12.6963 15.2405 12.5681 15.48 12.4118 15.5982C12.2111 15.75 11.935 15.75 11.3829 15.75H2.8664C2.31426 15.75 2.03819 15.75 1.83746 15.5982C1.68117 15.48 1.55295 15.2405 1.54121 15.0449C1.52613 14.7937 1.65711 14.5971 1.91906 14.2038Z" stroke="#4B0DAF" stroke-width="1.5" stroke-linecap="round" stroke-linejoin="round"/>
</svg>
