<svg width="18" height="18" viewBox="0 0 18 18" fill="none" xmlns="http://www.w3.org/2000/svg">
<g clip-path="url(#clip0_10492_39702)">
<path d="M9 16.5C13.1421 16.5 16.5 13.1421 16.5 9C16.5 4.85786 13.1421 1.5 9 1.5C4.85786 1.5 1.5 4.85786 1.5 9C1.5 13.1421 4.85786 16.5 9 16.5Z" stroke="#FF008A" stroke-width="1.5" stroke-linecap="round" stroke-linejoin="round"/>
<path d="M6 7.2C6 6.77996 6 6.56994 6.08175 6.40951C6.15365 6.26839 6.26839 6.15365 6.40951 6.08175C6.56994 6 6.77996 6 7.2 6H10.8C11.22 6 11.4301 6 11.5905 6.08175C11.7316 6.15365 11.8463 6.26839 11.9183 6.40951C12 6.56994 12 6.77996 12 7.2V10.8C12 11.22 12 11.4301 11.9183 11.5905C11.8463 11.7316 11.7316 11.8463 11.5905 11.9183C11.4301 12 11.22 12 10.8 12H7.2C6.77996 12 6.56994 12 6.40951 11.9183C6.26839 11.8463 6.15365 11.7316 6.08175 11.5905C6 11.4301 6 11.22 6 10.8V7.2Z" stroke="#FF008A" stroke-width="1.5" stroke-linecap="round" stroke-linejoin="round"/>
</g>
<defs>
<clipPath id="clip0_10492_39702">
<rect width="18" height="18" fill="white"/>
</clipPath>
</defs>
</svg>
