<svg width="19" height="18" viewBox="0 0 19 18" fill="none" xmlns="http://www.w3.org/2000/svg">
<g clip-path="url(#clip0_13106_37048)">
<mask id="mask0_13106_37048" style="mask-type:luminance" maskUnits="userSpaceOnUse" x="0" y="0" width="19" height="18">
<path d="M18.0957 0H0.0957031V18H18.0957V0Z" fill="white"/>
</mask>
<g mask="url(#mask0_13106_37048)">
<path d="M9.0957 16.5C13.2378 16.5 16.5957 13.1421 16.5957 9C16.5957 4.85786 13.2378 1.5 9.0957 1.5C4.95356 1.5 1.5957 4.85786 1.5957 9C1.5957 13.1421 4.95356 16.5 9.0957 16.5Z" stroke="#FF900E" stroke-width="1.5" stroke-linecap="round" stroke-linejoin="round"/>
<path d="M6.0957 7.2C6.0957 6.77996 6.0957 6.56994 6.17745 6.40951C6.24935 6.26839 6.36409 6.15365 6.50521 6.08175C6.66564 6 6.87566 6 7.2957 6H10.8957C11.3157 6 11.5258 6 11.6862 6.08175C11.8273 6.15365 11.942 6.26839 12.014 6.40951C12.0957 6.56994 12.0957 6.77996 12.0957 7.2V10.8C12.0957 11.22 12.0957 11.4301 12.014 11.5905C11.942 11.7316 11.8273 11.8463 11.6862 11.9183C11.5258 12 11.3157 12 10.8957 12H7.2957C6.87566 12 6.66564 12 6.50521 11.9183C6.36409 11.8463 6.24935 11.7316 6.17745 11.5905C6.0957 11.4301 6.0957 11.22 6.0957 10.8V7.2Z" stroke="#FF900E" stroke-width="1.5" stroke-linecap="round" stroke-linejoin="round"/>
</g>
</g>
<defs>
<clipPath id="clip0_13106_37048">
<rect width="18" height="18" fill="white" transform="translate(0.0957031)"/>
</clipPath>
</defs>
</svg>
