<svg width="20" height="21" viewBox="0 0 20 21" fill="none" xmlns="http://www.w3.org/2000/svg">
<path d="M16.9422 3.44885L16.9548 3.46188H16.9552C18.777 5.29032 19.7949 7.76056 19.7949 10.392C19.7949 15.8279 15.3814 20.2949 9.94599 20.2949C8.33093 20.2949 6.71665 19.9181 5.26411 19.1111L5.24912 19.1028L5.23252 19.107L0.0609954 20.4399L1.44689 15.3762L1.45141 15.3597L1.44332 15.3446C0.635276 13.8364 0.151067 12.1675 0.151069 10.4459L0.151065 10.4455C0.0972917 5.01004 4.51035 0.542968 10 0.542968C12.5834 0.542968 15.1127 1.56563 16.9422 3.44885ZM10 18.7052H10.043V18.705C11.5499 18.6969 13.0545 18.263 14.2933 17.4553C18.2055 15.064 19.3459 10.0105 16.9556 6.09922C14.5645 2.18646 9.51073 1.04593 5.59922 3.43626C1.68654 5.82739 0.545793 10.9354 2.93648 14.793L2.93646 14.793L2.93725 14.7942L3.14273 15.1025L2.33686 18.1648L2.31821 18.2357L2.38918 18.2173L5.50871 17.4106L5.81701 17.5648C7.06719 18.3253 8.53389 18.7052 10 18.7052ZM14.8526 12.771C14.8624 12.7783 14.8702 12.7846 14.876 12.7895V13.1445C14.8219 13.4148 14.7688 13.6773 14.6643 13.8863C14.614 13.9868 14.5119 14.0896 14.4021 14.1995C14.3505 14.2511 14.2988 14.2899 14.2445 14.3306L14.2437 14.3312C14.1901 14.3714 14.134 14.4135 14.0778 14.4697L13.9696 14.5779C13.9213 14.6262 13.8731 14.6506 13.8136 14.6771C13.8063 14.6803 13.7989 14.6836 13.7912 14.6869C13.7369 14.7108 13.6735 14.7385 13.6001 14.7872C13.3871 14.8932 13.071 14.9977 12.8108 14.9977H12.2772C12.1939 14.9708 12.0988 14.9573 12.0082 14.9443L12.0061 14.944C11.9105 14.9304 11.82 14.9173 11.7433 14.8918L11.7434 14.8917L11.7405 14.8909C10.2897 14.5148 8.99971 13.8167 7.87025 12.8496C7.81382 12.7663 7.74441 12.6973 7.67082 12.6305C7.64724 12.609 7.62342 12.588 7.59938 12.5667C7.54581 12.5193 7.49117 12.471 7.43585 12.4156L7.43584 12.4156L7.21965 12.1994L7.21966 12.1994L7.21865 12.1985C6.35853 11.3922 5.71337 10.4785 5.22917 9.45704L5.1759 9.29731L5.17605 9.29727L5.17464 9.29398C5.01427 8.91984 4.90782 8.49313 4.90782 8.06765C4.90782 7.4842 5.11975 6.89961 5.49174 6.42045C5.547 6.36485 5.58858 6.30942 5.62835 6.2564L5.62896 6.25559C5.66838 6.20303 5.70611 6.15284 5.75537 6.10278C5.81073 6.07412 5.86514 6.03331 5.91596 5.99519L5.91766 5.99392C5.97249 5.9528 6.02333 5.91482 6.07325 5.88985L6.07429 5.89191L6.08439 5.88182L6.12634 5.83993C6.17943 5.8374 6.2313 5.82442 6.27836 5.81264L6.28073 5.81205C6.33579 5.79827 6.38462 5.78629 6.43249 5.78629H7.02007C7.09704 5.81221 7.15828 5.8374 7.21269 5.87368C7.26754 5.91025 7.31731 5.95936 7.36824 6.03524C7.44951 6.19823 7.65074 6.64099 7.83893 7.07788C7.93344 7.29727 8.02446 7.51473 8.09517 7.69404C8.16652 7.87499 8.21552 8.01303 8.22812 8.07607L8.22779 8.07613L8.2295 8.08124C8.27759 8.22545 8.23082 8.42582 8.12866 8.58098C8.07243 8.63821 8.03044 8.70821 7.99152 8.77307L7.9902 8.77528C7.94913 8.84373 7.91118 8.90653 7.86149 8.95623C7.77912 9.0386 7.6836 9.14781 7.60912 9.23585C7.57178 9.27998 7.53953 9.31902 7.51662 9.34703L7.48975 9.38007L7.48254 9.38901L7.4814 9.39043C7.44573 9.42726 7.43078 9.47827 7.4237 9.52782C7.4165 9.57815 7.4165 9.63474 7.4165 9.68748V9.68929V9.69944L7.42105 9.70852C7.44068 9.74776 7.45247 9.7786 7.46327 9.80686C7.46676 9.81598 7.47015 9.82483 7.47366 9.83361C7.48732 9.86776 7.50252 9.89936 7.53212 9.93066L7.58323 10.0328L7.5832 10.0328L7.5841 10.0345C7.85713 10.526 8.23871 10.9618 8.61826 11.3413C8.674 11.3971 8.7431 11.4523 8.80982 11.5057L8.811 11.5066C8.87905 11.5611 8.94461 11.6136 8.99664 11.6656L9.02703 11.6352L8.99665 11.6656C9.4341 12.103 9.97962 12.4299 10.5768 12.7014L10.5768 12.7015L10.5786 12.7022L10.8411 12.8072C10.8719 12.836 10.9135 12.863 10.9538 12.8831C10.9956 12.9041 11.0436 12.9215 11.0811 12.9215H11.1352C11.2555 12.9215 11.3781 12.8618 11.4413 12.7406C11.8174 12.3108 12.0191 12.0822 12.1267 11.9611C12.1807 11.9003 12.211 11.8667 12.2278 11.8483L12.2423 11.8324C12.3475 11.7798 12.4466 11.7322 12.5946 11.7322C12.6095 11.7322 12.627 11.7399 12.6565 11.7547L12.6599 11.7564C12.6819 11.7675 12.7125 11.7828 12.7457 11.7858C13.0156 11.9205 13.3634 12.081 13.6445 12.2082C13.7865 12.2724 13.9116 12.3282 14.0012 12.3679L14.1066 12.4145L14.1351 12.427L14.1424 12.4303L14.1443 12.4311L14.1444 12.4311L14.1448 12.4313L14.1449 12.4314L14.1449 12.4314L14.7382 12.7011C14.7894 12.7267 14.8275 12.7522 14.8526 12.771Z" fill="#969EA1" stroke="#969EA1" stroke-width="0.0859362"/>
</svg>
